<svg xmlns="http://www.w3.org/2000/svg" width="785" height="297" viewBox="0 0 785 297">
  <g id="Group_21" data-name="Group 21" transform="translate(-466.5 -106.099)">
    <rect id="Rectangle_1" data-name="Rectangle 1" width="780" height="96" rx="19" transform="translate(469 108.599)" fill="#fff" stroke="#092533" stroke-width="5"/>
    <rect id="Rectangle_2" data-name="Rectangle 2" width="360" height="78" rx="19" transform="translate(469 224.599)" fill="#092533" stroke="#fff" stroke-width="5"/>
    <rect id="Rectangle_4" data-name="Rectangle 4" width="360" height="79" rx="19" transform="translate(469 321.599)" fill="#092533" stroke="#fff" stroke-width="5"/>
    <path id="Path_5" data-name="Path 5" d="M15.107,0H345.076a15.107,15.107,0,0,1,15.107,15.107v48.5a15.107,15.107,0,0,1-15.107,15.107H15.107A15.107,15.107,0,0,1,0,63.609v-48.5A15.107,15.107,0,0,1,15.107,0Z" transform="translate(888.817 321.883)" fill="none" stroke="#fff" stroke-width="5"/>
    <path id="Path_6" data-name="Path 6" d="M14.97,0H341.953a14.849,14.849,0,0,1,14.97,14.724V62a14.849,14.849,0,0,1-14.97,14.724H14.97A14.849,14.849,0,0,1,0,62V14.724A14.849,14.849,0,0,1,14.97,0Z" transform="translate(890.442 322.612)" fill="#092533"/>
    <rect id="Rectangle_3" data-name="Rectangle 3" width="361" height="78" rx="19" transform="translate(888 224.599)" fill="#092533" stroke="#fff" stroke-width="5"/>
    <path id="Path_1" data-name="Path 1" d="M921.185,579.5h62.359" transform="translate(-93.445 -218.259)" fill="none" stroke="#fff" stroke-width="5"/>
    <path id="Path_2" data-name="Path 2" d="M921.185,579.5h60.769" transform="translate(-91.854 -316.057)" fill="none" stroke="#fff" stroke-width="5"/>
  </g>
</svg>
