<svg xmlns="http://www.w3.org/2000/svg" xmlns:xlink="http://www.w3.org/1999/xlink" width="573.057" height="1138.5" viewBox="0 0 573.057 1138.5">
  <defs>
    <filter id="Path_10" x="17.821" y="0" width="157.553" height="157.553" filterUnits="userSpaceOnUse">
      <feOffset dy="3" input="SourceAlpha"/>
      <feGaussianBlur stdDeviation="3" result="blur"/>
      <feFlood flood-opacity="0.69"/>
      <feComposite operator="in" in2="blur"/>
      <feComposite in="SourceGraphic"/>
    </filter>
    <filter id="Path_17" x="205.436" y="0" width="157.553" height="157.553" filterUnits="userSpaceOnUse">
      <feOffset dy="3" input="SourceAlpha"/>
      <feGaussianBlur stdDeviation="3" result="blur-2"/>
      <feFlood flood-opacity="0.678"/>
      <feComposite operator="in" in2="blur-2"/>
      <feComposite in="SourceGraphic"/>
    </filter>
    <filter id="Path_21" x="397.683" y="0.579" width="157.553" height="157.553" filterUnits="userSpaceOnUse">
      <feOffset dy="3" input="SourceAlpha"/>
      <feGaussianBlur stdDeviation="3" result="blur-3"/>
      <feFlood flood-opacity="0.678"/>
      <feComposite operator="in" in2="blur-3"/>
      <feComposite in="SourceGraphic"/>
    </filter>
    <clipPath id="clip-path">
      <circle id="Ellipse_4" data-name="Ellipse 4" cx="36.5" cy="36.5" r="36.5" transform="translate(0.094 0.31)" fill="none" stroke="#707070" stroke-width="4"/>
    </clipPath>
    <clipPath id="clip-path-2">
      <ellipse id="Ellipse_2" data-name="Ellipse 2" cx="41.5" cy="39" rx="41.5" ry="39" transform="translate(-0.309 0.31)" fill="none" stroke="#707070" stroke-width="4"/>
    </clipPath>
  </defs>
  <g id="Group_24" data-name="Group 24" transform="translate(-3406.5 -304)">
    <g id="Group_23" data-name="Group 23" transform="translate(3409 310)">
      <g id="Group_22" data-name="Group 22" transform="translate(0 0)">
        <g transform="matrix(1, 0, 0, 1, -2.5, -6)" filter="url(#Path_10)">
          <g id="Path_10-2" data-name="Path 10" transform="translate(26.82 6)" fill="#fff">
            <path d="M 69.77659606933594 135.5532073974609 C 60.89505386352539 135.5532073974609 52.28130340576172 133.8146362304688 44.17461776733398 130.3857879638672 C 40.27793121337891 128.7376403808594 36.51928329467773 126.6974716186523 33.00307464599609 124.3219528198242 C 29.51922035217285 121.9683227539063 26.24305534362793 119.2651977539063 23.26553344726563 116.2876815795898 C 20.28801345825195 113.3101577758789 17.58488845825195 110.0339736938477 15.23124217987061 106.5501174926758 C 12.85574150085449 103.0339050292969 10.81557559967041 99.27526092529297 9.167428970336914 95.37859344482422 C 5.738575458526611 87.27188873291016 4.000012874603271 78.65813446044922 4.000012874603271 69.77659606933594 C 4.000012874603271 60.89505386352539 5.738575458526611 52.28130340576172 9.167428970336914 44.17461776733398 C 10.81557559967041 40.27793121337891 12.85574150085449 36.51928329467773 15.23124217987061 33.00307464599609 C 17.58488845825195 29.51922035217285 20.28801345825195 26.24305534362793 23.26553344726563 23.26553344726563 C 26.24305534362793 20.28801345825195 29.51922035217285 17.58488845825195 33.00307464599609 15.23124217987061 C 36.51928329467773 12.85574150085449 40.27793121337891 10.81557559967041 44.17461776733398 9.167428970336914 C 52.28130340576172 5.738575458526611 60.89505386352539 4.000012874603271 69.77659606933594 4.000012874603271 C 78.65813446044922 4.000012874603271 87.27188873291016 5.738575458526611 95.37859344482422 9.167428970336914 C 99.27526092529297 10.81557559967041 103.0339050292969 12.85574150085449 106.5501174926758 15.23124217987061 C 110.0339736938477 17.58488845825195 113.3101577758789 20.28801345825195 116.2876815795898 23.26553344726563 C 119.2651977539063 26.24305534362793 121.9683227539063 29.51922035217285 124.3219528198242 33.00307464599609 C 126.6974716186523 36.51928329467773 128.7376403808594 40.27793121337891 130.3857879638672 44.17461776733398 C 133.8146362304688 52.28130340576172 135.5532073974609 60.89505386352539 135.5532073974609 69.77659606933594 C 135.5532073974609 78.65813446044922 133.8146362304688 87.27188873291016 130.3857879638672 95.37857818603516 C 128.7376403808594 99.27526092529297 126.6974716186523 103.0339050292969 124.3219528198242 106.5501174926758 C 121.9683227539063 110.0339736938477 119.2651977539063 113.3101577758789 116.2876815795898 116.2876815795898 C 113.3101577758789 119.2651977539063 110.0339736938477 121.9683227539063 106.5501174926758 124.3219528198242 C 103.0339050292969 126.6974716186523 99.27526092529297 128.7376403808594 95.37857818603516 130.3857879638672 C 87.27188873291016 133.8146362304688 78.65813446044922 135.5532073974609 69.77659606933594 135.5532073974609 Z" stroke="none"/>
            <path d="M 69.77659606933594 8 C 35.71286773681641 8 8 35.71286773681641 8 69.77659606933594 C 8 103.8403167724609 35.71286773681641 131.5531921386719 69.77659606933594 131.5531921386719 C 103.8403167724609 131.5531921386719 131.5531921386719 103.8403167724609 131.5531921386719 69.77659606933594 C 131.5531921386719 35.71286773681641 103.8403167724609 8 69.77659606933594 8 M 69.77659606933594 0 C 108.3131484985352 0 139.5531921386719 31.24004364013672 139.5531921386719 69.77659606933594 C 139.5531921386719 108.3131484985352 108.3131484985352 139.5531921386719 69.77659606933594 139.5531921386719 C 31.24004364013672 139.5531921386719 0 108.3131484985352 0 69.77659606933594 C 0 31.24004364013672 31.24004364013672 0 69.77659606933594 0 Z" stroke="none" fill="#092533"/>
          </g>
        </g>
        <g transform="matrix(1, 0, 0, 1, -2.5, -6)" filter="url(#Path_17)">
          <g id="Path_17-2" data-name="Path 17" transform="translate(214.44 6)" fill="#fff">
            <path d="M 69.77659606933594 135.5532073974609 C 60.89505386352539 135.5532073974609 52.28130340576172 133.8146362304688 44.17461776733398 130.3857879638672 C 40.27793121337891 128.7376403808594 36.51928329467773 126.6974716186523 33.00307464599609 124.3219528198242 C 29.51922035217285 121.9683227539063 26.24305534362793 119.2651977539063 23.26553344726563 116.2876815795898 C 20.28801345825195 113.3101577758789 17.58488845825195 110.0339736938477 15.23124217987061 106.5501174926758 C 12.85574150085449 103.0339050292969 10.81557559967041 99.27526092529297 9.167428970336914 95.37859344482422 C 5.738575458526611 87.27188873291016 4.000012874603271 78.65813446044922 4.000012874603271 69.77659606933594 C 4.000012874603271 60.89505386352539 5.738575458526611 52.28130340576172 9.167428970336914 44.17461776733398 C 10.81557559967041 40.27793121337891 12.85574150085449 36.51928329467773 15.23124217987061 33.00307464599609 C 17.58488845825195 29.51922035217285 20.28801345825195 26.24305534362793 23.26553344726563 23.26553344726563 C 26.24305534362793 20.28801345825195 29.51922035217285 17.58488845825195 33.00307464599609 15.23124217987061 C 36.51928329467773 12.85574150085449 40.27793121337891 10.81557559967041 44.17461776733398 9.167428970336914 C 52.28130340576172 5.738575458526611 60.89505386352539 4.000012874603271 69.77659606933594 4.000012874603271 C 78.65813446044922 4.000012874603271 87.27188873291016 5.738575458526611 95.37859344482422 9.167428970336914 C 99.27526092529297 10.81557559967041 103.0339050292969 12.85574150085449 106.5501174926758 15.23124217987061 C 110.0339736938477 17.58488845825195 113.3101577758789 20.28801345825195 116.2876815795898 23.26553344726563 C 119.2651977539063 26.24305534362793 121.9683227539063 29.51922035217285 124.3219528198242 33.00307464599609 C 126.6974716186523 36.51928329467773 128.7376403808594 40.27793121337891 130.3857879638672 44.17461776733398 C 133.8146362304688 52.28130340576172 135.5532073974609 60.89505386352539 135.5532073974609 69.77659606933594 C 135.5532073974609 78.65813446044922 133.8146362304688 87.27188873291016 130.3857879638672 95.37857818603516 C 128.7376403808594 99.27526092529297 126.6974716186523 103.0339050292969 124.3219528198242 106.5501174926758 C 121.9683227539063 110.0339736938477 119.2651977539063 113.3101577758789 116.2876815795898 116.2876815795898 C 113.3101577758789 119.2651977539063 110.0339736938477 121.9683227539063 106.5501174926758 124.3219528198242 C 103.0339050292969 126.6974716186523 99.27526092529297 128.7376403808594 95.37857818603516 130.3857879638672 C 87.27188873291016 133.8146362304688 78.65813446044922 135.5532073974609 69.77659606933594 135.5532073974609 Z" stroke="none"/>
            <path d="M 69.77659606933594 8 C 35.71286773681641 8 8 35.71286773681641 8 69.77659606933594 C 8 103.8403167724609 35.71286773681641 131.5531921386719 69.77659606933594 131.5531921386719 C 103.8403167724609 131.5531921386719 131.5531921386719 103.8403167724609 131.5531921386719 69.77659606933594 C 131.5531921386719 35.71286773681641 103.8403167724609 8 69.77659606933594 8 M 69.77659606933594 0 C 108.3131484985352 0 139.5531921386719 31.24004364013672 139.5531921386719 69.77659606933594 C 139.5531921386719 108.3131484985352 108.3131484985352 139.5531921386719 69.77659606933594 139.5531921386719 C 31.24004364013672 139.5531921386719 0 108.3131484985352 0 69.77659606933594 C 0 31.24004364013672 31.24004364013672 0 69.77659606933594 0 Z" stroke="none" fill="#092533"/>
          </g>
        </g>
        <g transform="matrix(1, 0, 0, 1, -2.5, -6)" filter="url(#Path_21)">
          <g id="Path_21-2" data-name="Path 21" transform="translate(406.68 6.58)" fill="#fff">
            <path d="M 69.77659606933594 135.5532073974609 C 60.89505386352539 135.5532073974609 52.28130340576172 133.8146362304688 44.17461776733398 130.3857879638672 C 40.27793121337891 128.7376403808594 36.51928329467773 126.6974716186523 33.00307464599609 124.3219528198242 C 29.51922035217285 121.9683227539063 26.24305534362793 119.2651977539063 23.26553344726563 116.2876815795898 C 20.28801345825195 113.3101577758789 17.58488845825195 110.0339736938477 15.23124217987061 106.5501174926758 C 12.85574150085449 103.0339050292969 10.81557559967041 99.27526092529297 9.167428970336914 95.37859344482422 C 5.738575458526611 87.27188873291016 4.000012874603271 78.65813446044922 4.000012874603271 69.77659606933594 C 4.000012874603271 60.89505386352539 5.738575458526611 52.28130340576172 9.167428970336914 44.17461776733398 C 10.81557559967041 40.27793121337891 12.85574150085449 36.51928329467773 15.23124217987061 33.00307464599609 C 17.58488845825195 29.51922035217285 20.28801345825195 26.24305534362793 23.26553344726563 23.26553344726563 C 26.24305534362793 20.28801345825195 29.51922035217285 17.58488845825195 33.00307464599609 15.23124217987061 C 36.51928329467773 12.85574150085449 40.27793121337891 10.81557559967041 44.17461776733398 9.167428970336914 C 52.28130340576172 5.738575458526611 60.89505386352539 4.000012874603271 69.77659606933594 4.000012874603271 C 78.65813446044922 4.000012874603271 87.27188873291016 5.738575458526611 95.37859344482422 9.167428970336914 C 99.27526092529297 10.81557559967041 103.0339050292969 12.85574150085449 106.5501174926758 15.23124217987061 C 110.0339736938477 17.58488845825195 113.3101577758789 20.28801345825195 116.2876815795898 23.26553344726563 C 119.2651977539063 26.24305534362793 121.9683227539063 29.51922035217285 124.3219528198242 33.00307464599609 C 126.6974716186523 36.51928329467773 128.7376403808594 40.27793121337891 130.3857879638672 44.17461776733398 C 133.8146362304688 52.28130340576172 135.5532073974609 60.89505386352539 135.5532073974609 69.77659606933594 C 135.5532073974609 78.65813446044922 133.8146362304688 87.27188873291016 130.3857879638672 95.37857818603516 C 128.7376403808594 99.27526092529297 126.6974716186523 103.0339050292969 124.3219528198242 106.5501174926758 C 121.9683227539063 110.0339736938477 119.2651977539063 113.3101577758789 116.2876815795898 116.2876815795898 C 113.3101577758789 119.2651977539063 110.0339736938477 121.9683227539063 106.5501174926758 124.3219528198242 C 103.0339050292969 126.6974716186523 99.27526092529297 128.7376403808594 95.37857818603516 130.3857879638672 C 87.27188873291016 133.8146362304688 78.65813446044922 135.5532073974609 69.77659606933594 135.5532073974609 Z" stroke="none"/>
            <path d="M 69.77659606933594 8 C 35.71286773681641 8 8 35.71286773681641 8 69.77659606933594 C 8 103.8403167724609 35.71286773681641 131.5531921386719 69.77659606933594 131.5531921386719 C 103.8403167724609 131.5531921386719 131.5531921386719 103.8403167724609 131.5531921386719 69.77659606933594 C 131.5531921386719 35.71286773681641 103.8403167724609 8 69.77659606933594 8 M 69.77659606933594 0 C 108.3131484985352 0 139.5531921386719 31.24004364013672 139.5531921386719 69.77659606933594 C 139.5531921386719 108.3131484985352 108.3131484985352 139.5531921386719 69.77659606933594 139.5531921386719 C 31.24004364013672 139.5531921386719 0 108.3131484985352 0 69.77659606933594 C 0 31.24004364013672 31.24004364013672 0 69.77659606933594 0 Z" stroke="none" fill="#092533"/>
          </g>
        </g>
        <g id="Mask_Group_1" data-name="Mask Group 1" transform="translate(57.906 30.69)" clip-path="url(#clip-path)">
          <g id="Stop_watch" data-name="Stop watch" transform="translate(6.538)">
            <path id="Path_11" data-name="Path 11" d="M59.967,46.5A30.074,30.074,0,1,0,90.041,76.574,30.074,30.074,0,0,0,59.967,46.5Zm0,57.533A27.459,27.459,0,1,1,87.426,76.574,27.459,27.459,0,0,1,59.967,104.033Z" transform="translate(-29.893 -33.424)"/>
            <path id="Path_12" data-name="Path 12" d="M44.256,55.332l-1.108-1.108a1.327,1.327,0,0,0-1.837,0l-3.7,3.7a1.3,1.3,0,0,0,0,1.831l1.108,1.109a32.936,32.936,0,0,1,5.535-5.532Z" transform="translate(-34.344 -37.884)"/>
            <circle id="Ellipse_3" data-name="Ellipse 3" cx="1.308" cy="1.308" r="1.308" transform="translate(28.766 41.842)"/>
            <path id="Path_13" data-name="Path 13" d="M89.046,83.425H92.9a24.643,24.643,0,0,0-2.66-9.952L86.9,75.4l-1.308-2.265,3.347-1.933a25.026,25.026,0,0,0-7.286-7.286l-1.933,3.347-2.265-1.308,1.931-3.346a24.642,24.642,0,0,0-9.952-2.66v3.856H66.817V59.955a24.642,24.642,0,0,0-9.952,2.66L58.8,65.961l-2.265,1.308L54.6,63.921a25.026,25.026,0,0,0-7.286,7.286l3.347,1.933L49.354,75.4l-3.346-1.931a24.642,24.642,0,0,0-2.66,9.952H47.2V86.04H43.348a24.642,24.642,0,0,0,2.66,9.952l3.346-1.931,1.308,2.265-3.347,1.933a25.026,25.026,0,0,0,7.286,7.286l1.933-3.347L58.8,103.5l-1.931,3.346a24.642,24.642,0,0,0,9.952,2.66v-3.856h2.615v3.856a24.642,24.642,0,0,0,9.952-2.66L77.453,103.5l2.265-1.308,1.933,3.347a25.026,25.026,0,0,0,7.286-7.286l-3.347-1.933L86.9,94.06l3.346,1.931A24.642,24.642,0,0,0,92.9,86.04H89.046Zm-20.921,5.23a3.923,3.923,0,0,1-3.682-2.615H49.819V83.425H64.443a3.916,3.916,0,1,1,3.682,5.23Z" transform="translate(-38.051 -41.582)"/>
            <path id="Path_14" data-name="Path 14" d="M100.034,13.286H84.343a1.308,1.308,0,1,0,0,2.615h15.691a1.308,1.308,0,1,0,0-2.615Z" transform="translate(-62.115 -13.286)"/>
            <path id="Path_15" data-name="Path 15" d="M104.272,31.8c.438,0,.873.016,1.308.033V26.571h-2.615v5.263C103.4,31.817,103.834,31.8,104.272,31.8Z" transform="translate(-74.198 -21.341)"/>
            <path id="Path_16" data-name="Path 16" d="M157.5,55.338a32.936,32.936,0,0,1,5.539,5.539l1.108-1.108a1.3,1.3,0,0,0,0-1.837l-3.7-3.7a1.327,1.327,0,0,0-1.837,0Z" transform="translate(-107.265 -37.89)"/>
          </g>
        </g>
        <text id="_50_50" data-name="50/50" transform="translate(426 84)" font-size="34" font-family="SegoeUI-Bold, Segoe UI" font-weight="700"><tspan x="0" y="0">50/50</tspan></text>
        <g id="Group_7" data-name="Group 7" transform="translate(0 181.824)">
          <rect id="Rectangle_16" data-name="Rectangle 16" width="568" height="70" rx="19" transform="translate(0 0.176)" fill="#daa520" stroke="#daa520" stroke-width="5"/>
          <text id="Golden_Question" data-name="Golden Question" transform="translate(101 53.176)" fill="#fff" font-size="45" font-family="SegoeUI-Bold, Segoe UI" font-weight="700"><tspan x="0" y="0">Golden Question</tspan></text>
        </g>
        <g id="Group_8" data-name="Group 8" transform="translate(0 266.946)">
          <rect id="Rectangle_16-2" data-name="Rectangle 16" width="568" height="71" rx="19" transform="translate(0 0.054)" fill="#092533" stroke="#092533" stroke-width="5"/>
          <text id="PTS_-_9000" data-name="PTS - 9000" transform="translate(85 54.054)" fill="#fff" font-size="45" font-family="SegoeUI-Bold, Segoe UI" font-weight="700"><tspan x="0" y="0">PTS - 9000</tspan></text>
          <text id="_9." data-name="9." transform="translate(21 54.054)" fill="#fff" font-size="45" font-family="SegoeUI-Bold, Segoe UI" font-weight="700"><tspan x="0" y="0">9.</tspan></text>
        </g>
        <g id="Group_9" data-name="Group 9" transform="translate(0 352.068)">
          <rect id="Rectangle_16-3" data-name="Rectangle 16" width="568" height="71" rx="19" transform="translate(0 -0.068)" fill="#092533" stroke="#092533" stroke-width="5"/>
          <text id="PTS_-_8000" data-name="PTS - 8000" transform="translate(85 53.932)" fill="#fff" font-size="45" font-family="SegoeUI-Bold, Segoe UI" font-weight="700"><tspan x="0" y="0">PTS - 8000</tspan></text>
          <text id="_8." data-name="8." transform="translate(21 53.932)" fill="#fff" font-size="45" font-family="SegoeUI-Bold, Segoe UI" font-weight="700"><tspan x="0" y="0">8.</tspan></text>
        </g>
        <g id="Group_10" data-name="Group 10" transform="translate(0 437.189)">
          <rect id="Rectangle_16-4" data-name="Rectangle 16" width="568" height="71" rx="19" transform="translate(0 -0.189)" fill="#092533" stroke="#092533" stroke-width="5"/>
          <text id="PTS_-_7000" data-name="PTS - 7000" transform="translate(85 53.811)" fill="#fff" font-size="45" font-family="SegoeUI-Bold, Segoe UI" font-weight="700"><tspan x="0" y="0">PTS - 7000</tspan></text>
          <text id="_7." data-name="7." transform="translate(21 53.811)" fill="#fff" font-size="45" font-family="SegoeUI-Bold, Segoe UI" font-weight="700"><tspan x="0" y="0">7.</tspan></text>
        </g>
        <g id="Group_11" data-name="Group 11" transform="translate(0 522.311)">
          <rect id="Rectangle_16-5" data-name="Rectangle 16" width="568" height="71" rx="19" transform="translate(0 -0.311)" fill="#092533" stroke="#092533" stroke-width="5"/>
          <text id="PTS_-_6000" data-name="PTS - 6000" transform="translate(85 53.689)" fill="#fff" font-size="45" font-family="SegoeUI-Bold, Segoe UI" font-weight="700"><tspan x="0" y="0">PTS - 6000</tspan></text>
          <text id="_6." data-name="6." transform="translate(21 53.689)" fill="#fff" font-size="45" font-family="SegoeUI-Bold, Segoe UI" font-weight="700"><tspan x="0" y="0">6.</tspan></text>
        </g>
        <g id="Group_12" data-name="Group 12" transform="translate(0 607.433)">
          <rect id="Rectangle_16-6" data-name="Rectangle 16" width="568" height="71" rx="19" transform="translate(0 -0.433)" fill="#092533" stroke="#092533" stroke-width="5"/>
          <text id="PTS_-_5000" data-name="PTS - 5000" transform="translate(85 53.567)" fill="#fff" font-size="45" font-family="SegoeUI-Bold, Segoe UI" font-weight="700"><tspan x="0" y="0">PTS - 5000</tspan></text>
          <text id="_5." data-name="5." transform="translate(21 53.567)" fill="#fff" font-size="45" font-family="SegoeUI-Bold, Segoe UI" font-weight="700"><tspan x="0" y="0">5.</tspan></text>
        </g>
        <g id="Group_13" data-name="Group 13" transform="translate(0 692.554)">
          <rect id="Rectangle_16-7" data-name="Rectangle 16" width="568" height="70" rx="19" transform="translate(0 0.446)" fill="#092533" stroke="#092533" stroke-width="5"/>
          <text id="PTS_-_4000" data-name="PTS - 4000" transform="translate(85 53.446)" fill="#fff" font-size="45" font-family="SegoeUI-Bold, Segoe UI" font-weight="700"><tspan x="0" y="0">PTS - 4000</tspan></text>
          <text id="_4." data-name="4." transform="translate(21 53.446)" fill="#fff" font-size="45" font-family="SegoeUI-Bold, Segoe UI" font-weight="700"><tspan x="0" y="0">4.</tspan></text>
        </g>
        <g id="Group_14" data-name="Group 14" transform="translate(0 777.676)">
          <path id="Path_23" data-name="Path 23" d="M11,0H557.055a11,11,0,0,1,11,11V59.643a11,11,0,0,1-11,11H11a11,11,0,0,1-11-11V11A11,11,0,0,1,11,0Z" transform="translate(0 0)" fill="#092533" stroke="#092533" stroke-width="5"/>
          <text id="PTS_-_3000" data-name="PTS - 3000" transform="translate(85 53.324)" fill="#fff" font-size="45" font-family="SegoeUI-Bold, Segoe UI" font-weight="700"><tspan x="0" y="0">PTS - 3000</tspan></text>
          <text id="_3." data-name="3." transform="translate(21 53.324)" fill="#fff" font-size="45" font-family="SegoeUI-Bold, Segoe UI" font-weight="700"><tspan x="0" y="0">3.</tspan></text>
        </g>
        <g id="Group_15" data-name="Group 15" transform="translate(0 862.798)">
          <path id="Path_22" data-name="Path 22" d="M11,0H557.055a11,11,0,0,1,11,11V59.643a11,11,0,0,1-11,11H11a11,11,0,0,1-11-11V11A11,11,0,0,1,11,0Z" transform="translate(0 0)" fill="#092533" stroke="#092533" stroke-width="5"/>
          <text id="PTS_-_2000" data-name="PTS - 2000" transform="translate(85 53.202)" fill="#fff" font-size="45" font-family="SegoeUI-Bold, Segoe UI" font-weight="700"><tspan x="0" y="0">PTS - 2000</tspan></text>
          <text id="_2." data-name="2." transform="translate(21 53.202)" fill="#fff" font-size="45" font-family="SegoeUI-Bold, Segoe UI" font-weight="700"><tspan x="0" y="0">2.</tspan></text>
        </g>
        <g id="Group_16" data-name="Group 16" transform="translate(0 947.919)">
          <rect id="Rectangle_16-8" data-name="Rectangle 16" width="568" height="71" rx="19" transform="translate(0 0.081)" fill="#092533" stroke="#092533" stroke-width="5"/>
          <text id="PTS_-_1000" data-name="PTS - 1000" transform="translate(85 54.081)" fill="#fff" font-size="45" font-family="SegoeUI-Bold, Segoe UI" font-weight="700"><tspan x="0" y="0">PTS - 1000</tspan></text>
          <text id="_1." data-name="1." transform="translate(21 54.081)" fill="#fff" font-size="45" font-family="SegoeUI-Bold, Segoe UI" font-weight="700"><tspan x="0" y="0">1.</tspan></text>
        </g>
        <g id="Group_18" data-name="Group 18" transform="translate(148.818 1059.099)">
          <rect id="Rectangle_16-9" data-name="Rectangle 16" width="266" height="71" rx="19" transform="translate(0.182 -0.099)" fill="#092533" stroke="#092533" stroke-width="5"/>
        </g>
        <text id="BANK" transform="translate(217 1113)" fill="#fff" font-size="45" font-family="SegoeUI-Bold, Segoe UI" font-weight="700"><tspan x="0" y="0">BANK</tspan></text>
        <g id="Mask_Group_2" data-name="Mask Group 2" transform="translate(240.309 30.69)" clip-path="url(#clip-path-2)">
          <g id="international" transform="translate(8.409 4.918)">
            <g id="Group_2" data-name="Group 2" transform="translate(0 0)">
              <g id="Group_1" data-name="Group 1">
                <path id="Path_18" data-name="Path 18" d="M54.5,10.763q-.647-.647-1.326-1.251l-.021-.019A31.692,31.692,0,0,0,31.925,1.412h0A31.747,31.747,0,0,0,10.778,9.43a.985.985,0,0,0-.162.143,32.093,32.093,0,0,0-4.495,4.962A.976.976,0,1,0,7.7,15.686a29.837,29.837,0,0,1,3.668-4.149A31.875,31.875,0,0,0,18.534,16.1a57.447,57.447,0,0,0-2.463,16.262H1.969a29.6,29.6,0,0,1,3.2-12.553.976.976,0,1,0-1.742-.882A31.931,31.931,0,0,0,31.925,65.262a31.678,31.678,0,0,0,18.849-6.156.976.976,0,0,0-1.154-1.575,29.712,29.712,0,0,1-11.31,5.1,16.862,16.862,0,0,0,2.321-2.507.976.976,0,1,0-1.552-1.184c-1.894,2.484-4.01,3.949-6.172,4.291l.087-8.282a.976.976,0,0,0-.966-.986h-.01a.976.976,0,0,0-.976.966l-.087,8.306c-3.225-.495-6.275-3.446-8.676-8.436A34.909,34.909,0,0,1,20.9,51.483a29.773,29.773,0,0,1,6.167-1.7.976.976,0,1,0-.314-1.927,31.74,31.74,0,0,0-6.47,1.773,55.773,55.773,0,0,1-2.258-15.314H28.4a.976.976,0,0,0,0-1.952H18.024a55.588,55.588,0,0,1,2.315-15.5A31.907,31.907,0,0,0,31,19.025l.038,11.342a.976.976,0,0,0,.976.973h0a.976.976,0,0,0,.973-.979l-.038-11.339a31.91,31.91,0,0,0,10.416-2.1,48.684,48.684,0,0,1,1.834,9.544.976.976,0,0,0,1.944-.182,50.488,50.488,0,0,0-1.97-10.12,31.876,31.876,0,0,0,7.3-4.618,29.894,29.894,0,0,1,9.4,20.819H56.29a.976.976,0,0,0,0,1.952h5.591a29.843,29.843,0,0,1-4.757,15.259.976.976,0,1,0,1.64,1.059A31.935,31.935,0,0,0,54.5,10.763ZM20.519,55.644a21.617,21.617,0,0,0,5,6.974A29.887,29.887,0,0,1,12.732,56.34,29.953,29.953,0,0,1,19.1,52.261,36.629,36.629,0,0,0,20.519,55.644ZM18.478,50.4a31.912,31.912,0,0,0-7.218,4.629A29.893,29.893,0,0,1,1.97,34.313h14.1A57.614,57.614,0,0,0,18.478,50.4Zm.69-36.16a29.913,29.913,0,0,1-6.319-4.006A30.183,30.183,0,0,1,25.5,4.07a21.641,21.641,0,0,0-4.982,6.96C20.031,12.045,19.581,13.118,19.169,14.239Zm1.795.774c.4-1.1.839-2.146,1.315-3.136,2.4-4.99,5.449-7.941,8.673-8.436L31,17.071A29.96,29.96,0,0,1,20.963,15.013ZM32.95,17.068,32.9,3.449c2.6.44,5.172,2.608,7.343,6.219a30.5,30.5,0,0,1,2.512,5.395A29.952,29.952,0,0,1,32.95,17.068ZM44.556,14.3A32.325,32.325,0,0,0,41.92,8.662a19.327,19.327,0,0,0-3.771-4.646A29.884,29.884,0,0,1,51,10.234,29.91,29.91,0,0,1,44.556,14.3Z" transform="translate(0 -1.412)"/>
              </g>
            </g>
            <g id="Group_4" data-name="Group 4" transform="translate(33.045 31.593)">
              <g id="Group_3" data-name="Group 3">
                <path id="Path_19" data-name="Path 19" d="M111.546,94.918h0a9.811,9.811,0,1,0,2.874,6.937A9.822,9.822,0,0,0,111.546,94.918Zm-1.38,12.495a7.855,7.855,0,1,1,0-11.114h0a7.859,7.859,0,0,1,0,11.114Z" transform="translate(-94.802 -92.049)"/>
              </g>
            </g>
            <g id="Group_6" data-name="Group 6" transform="translate(28.828 27.341)">
              <g id="Group_5" data-name="Group 5">
                <path id="Path_20" data-name="Path 20" d="M118.424,111.391l-9.866-9.866A14.068,14.068,0,1,0,83.158,90.2a.976.976,0,1,0,1.884.513,12.123,12.123,0,1,1-.389,4.171.976.976,0,1,0-1.946.156,14.076,14.076,0,0,0,21.634,10.7l9.869,9.869a.976.976,0,0,0,1.38,0l2.833-2.833a.976.976,0,0,0,0-1.38Zm-3.524,2.143-8.953-8.953.724-.724,0,0,0,0,.724-.724,8.953,8.953Z" transform="translate(-82.704 -79.85)"/>
              </g>
            </g>
          </g>
        </g>
      </g>
    </g>
  </g>
</svg>
